<?xml version="1.0" encoding="utf-8"?>
<!-- Generator: Adobe Illustrator 24.1.1, SVG Export Plug-In . SVG Version: 6.00 Build 0)  -->
<svg version="1.1" id="Layer_1" xmlns="http://www.w3.org/2000/svg" xmlns:xlink="http://www.w3.org/1999/xlink" x="0px" y="0px"
	 viewBox="0 0 278 100" style="enable-background:new 0 0 278 100;" xml:space="preserve">
<style type="text/css">
	.st0{fill:#3C0B75;}
	.st1{fill:#FCB614;}
</style>
<g>
	<path class="st0" d="M103.58,22.01h41.98v11.03h-29.85v11.74h26.31V55.8h-26.31v21.35h-12.13V22.01z"/>
	<path class="st0" d="M155.8,22.01h12.13v55.14H155.8V22.01z"/>
	<path class="st0" d="M181.72,22.01h12.13v44.11h27.49v11.03h-39.62V22.01z"/>
	<path class="st0" d="M230.47,22.01h41.59V32.8h-29.54v11.18h25.99v10.79h-25.99v11.58h29.93v10.79h-41.98V22.01z"/>
</g>
<path class="st1" d="M44.61,65.51c-11.8-0.37-20.94-9.34-20.94-22.94s9.53-22.95,21.7-22.95s21.7,9.07,21.7,22.95
	c0,5.7-1.6,10.57-4.33,14.36c-0.42,0.59-0.02,1.4,0.7,1.4h22.63c0.36,0,0.68-0.21,0.81-0.53C88.89,53.08,90,47.94,90,42.57
	C90,19.73,70.01,1.2,45.36,1.2S0.72,19.73,0.72,42.57s19.99,41.36,44.64,41.36c5.15,0,10.08-0.82,14.69-2.31
	c0.31-0.1,0.66-0.02,0.89,0.21l16.45,16.45c0.56,0.56,1.5,0.17,1.5-0.62V66.37c0-0.49-0.39-0.88-0.88-0.88H44.62L44.61,65.51z"/>
</svg>
