<?xml version="1.0" encoding="utf-8"?>
<!-- Generator: Adobe Illustrator 24.1.1, SVG Export Plug-In . SVG Version: 6.00 Build 0)  -->
<svg version="1.1" id="Layer_1" xmlns="http://www.w3.org/2000/svg" xmlns:xlink="http://www.w3.org/1999/xlink" x="0px" y="0px"
	 viewBox="0 0 190 70" style="enable-background:new 0 0 190 70;" xml:space="preserve">
<style type="text/css">
	.st0{fill:#3C0B75;}
	.st1{fill:#FCB614;}
</style>
<g>
	<path class="st0" d="M92.6,13.96c2.81,0,5.21,0.41,7.18,1.23c1.97,0.82,3.58,1.9,4.82,3.24c1.24,1.34,2.14,2.88,2.71,4.6
		c0.57,1.72,0.85,3.51,0.85,5.36c0,1.81-0.28,3.58-0.85,5.32c-0.57,1.74-1.47,3.29-2.71,4.63c-1.24,1.34-2.85,2.42-4.82,3.24
		c-1.97,0.82-4.37,1.23-7.18,1.23H82.2v16.13h-9.89V13.96H92.6z M89.89,35.13c1.13,0,2.23-0.08,3.28-0.25
		c1.05-0.17,1.97-0.49,2.77-0.98c0.8-0.48,1.44-1.17,1.92-2.05c0.48-0.88,0.72-2.04,0.72-3.46s-0.24-2.58-0.72-3.47
		c-0.48-0.88-1.12-1.56-1.92-2.05c-0.8-0.48-1.72-0.81-2.77-0.98c-1.05-0.17-2.14-0.25-3.28-0.25H82.2v13.48H89.89z"/>
	<path class="st0" d="M132.1,13.96l16.82,44.98h-10.27l-3.4-10.02h-16.82l-3.53,10.02h-9.95l17.01-44.98H132.1z M132.67,41.56
		L127,25.05h-0.13l-5.86,16.51H132.67z"/>
	<path class="st0" d="M143.31,13.96h11.09l10.52,17.77l10.46-17.77h11.02l-16.7,27.72v17.26h-9.89V41.43L143.31,13.96z"/>
</g>
<text transform="matrix(1 0 0 1 282.9644 56.9453)" class="st0" style="font-family:'HelveticaNeue-Bold'; font-size:63px;">PAY</text>
<path class="st1" d="M31.33,46.06c-8.23-0.26-14.61-6.51-14.61-16s6.65-16.01,15.14-16.01S47,20.37,47,30.06
	c0,3.97-1.12,7.37-3.02,10.02c-0.29,0.41-0.02,0.98,0.49,0.98h15.79c0.25,0,0.47-0.15,0.57-0.37C62.23,37.39,63,33.81,63,30.06
	C63,14.12,49.06,1.2,31.86,1.2S0.72,14.12,0.72,30.06s13.94,28.85,31.14,28.85c3.59,0,7.03-0.57,10.25-1.61
	c0.22-0.07,0.46-0.02,0.62,0.15L54.2,68.92c0.39,0.39,1.05,0.12,1.05-0.43V46.66c0-0.34-0.27-0.61-0.61-0.61L31.33,46.06
	L31.33,46.06z"/>
</svg>
