<?xml version="1.0" encoding="utf-8"?>
<!-- Generator: Adobe Illustrator 24.1.1, SVG Export Plug-In . SVG Version: 6.00 Build 0)  -->
<svg version="1.1" id="Layer_1" xmlns="http://www.w3.org/2000/svg" xmlns:xlink="http://www.w3.org/1999/xlink" x="0px" y="0px"
	 viewBox="0 0 319 70" style="enable-background:new 0 0 319 70;" xml:space="preserve">
<style type="text/css">
	.st0{fill:#3C0B75;}
	.st1{fill:#FCB614;}
</style>
<g>
	<path class="st0" d="M93.6,13.96c2.81,0,5.21,0.41,7.18,1.23c1.97,0.82,3.58,1.9,4.82,3.24c1.24,1.34,2.14,2.88,2.71,4.6
		c0.57,1.72,0.85,3.51,0.85,5.36c0,1.81-0.28,3.58-0.85,5.32c-0.57,1.74-1.47,3.29-2.71,4.63c-1.24,1.34-2.85,2.42-4.82,3.24
		c-1.97,0.82-4.37,1.23-7.18,1.23H83.2v16.13h-9.89V13.96H93.6z M90.89,35.13c1.13,0,2.23-0.08,3.28-0.25
		c1.05-0.17,1.97-0.49,2.77-0.98c0.8-0.48,1.44-1.17,1.92-2.05c0.48-0.88,0.72-2.04,0.72-3.46s-0.24-2.58-0.72-3.47
		c-0.48-0.88-1.12-1.56-1.92-2.05c-0.8-0.48-1.72-0.81-2.77-0.98c-1.05-0.17-2.14-0.25-3.28-0.25H83.2v13.48H90.89z"/>
	<path class="st0" d="M136.5,13.96c2.14,0,4.1,0.19,5.86,0.57s3.28,1,4.54,1.86c1.26,0.86,2.24,2.01,2.93,3.43
		c0.69,1.43,1.04,3.19,1.04,5.29c0,2.27-0.51,4.16-1.54,5.67s-2.55,2.75-4.57,3.72c2.77,0.8,4.84,2.2,6.21,4.19
		c1.36,2,2.05,4.4,2.05,7.21c0,2.27-0.44,4.23-1.32,5.89c-0.88,1.66-2.07,3.01-3.56,4.06s-3.19,1.83-5.1,2.33
		c-1.91,0.5-3.87,0.76-5.89,0.76h-21.8V13.96H136.5z M135.24,32.17c1.76,0,3.21-0.42,4.35-1.26c1.13-0.84,1.7-2.21,1.7-4.09
		c0-1.05-0.19-1.91-0.57-2.58c-0.38-0.67-0.88-1.2-1.51-1.58c-0.63-0.38-1.36-0.64-2.17-0.79c-0.82-0.15-1.67-0.22-2.55-0.22h-9.26
		v10.52H135.24z M135.81,51.26c0.97,0,1.89-0.09,2.77-0.28c0.88-0.19,1.66-0.5,2.33-0.94c0.67-0.44,1.21-1.04,1.61-1.8
		s0.6-1.72,0.6-2.9c0-2.31-0.65-3.96-1.95-4.95c-1.3-0.99-3.02-1.48-5.17-1.48h-10.77v12.35H135.81z"/>
	<path class="st0" d="M169.58,13.96v36.67h21.92v8.32h-31.82V13.96H169.58z"/>
	<path class="st0" d="M236.98,13.96l16.82,44.98h-10.27l-3.4-10.02h-16.82l-3.53,10.02h-9.95l17.01-44.98H236.98z M237.55,41.56
		l-5.67-16.51h-0.13l-5.86,16.51H237.55z"/>
	<path class="st0" d="M278,13.96c2.81,0,5.21,0.41,7.18,1.23c1.97,0.82,3.58,1.9,4.82,3.24c1.24,1.34,2.14,2.88,2.71,4.6
		c0.57,1.72,0.85,3.51,0.85,5.36c0,1.81-0.28,3.58-0.85,5.32c-0.57,1.74-1.47,3.29-2.71,4.63c-1.24,1.34-2.85,2.42-4.82,3.24
		c-1.97,0.82-4.37,1.23-7.18,1.23H267.6v16.13h-9.89V13.96H278z M275.29,35.13c1.13,0,2.23-0.08,3.28-0.25
		c1.05-0.17,1.97-0.49,2.77-0.98c0.8-0.48,1.44-1.17,1.92-2.05c0.48-0.88,0.72-2.04,0.72-3.46s-0.24-2.58-0.72-3.47
		c-0.48-0.88-1.12-1.56-1.92-2.05c-0.8-0.48-1.72-0.81-2.77-0.98c-1.05-0.17-2.14-0.25-3.28-0.25h-7.69v13.48H275.29z"/>
	<path class="st0" d="M309.62,13.96v44.98h-9.89V13.96H309.62z"/>
</g>
<path class="st1" d="M32.33,46.06c-8.23-0.26-14.61-6.51-14.61-16s6.65-16.01,15.14-16.01S48,20.37,48,30.06
	c0,3.97-1.12,7.37-3.02,10.02c-0.29,0.41-0.02,0.98,0.49,0.98h15.79c0.25,0,0.47-0.15,0.57-0.37C63.23,37.39,64,33.81,64,30.06
	C64,14.12,50.06,1.2,32.86,1.2S1.72,14.12,1.72,30.06s13.94,28.85,31.14,28.85c3.59,0,7.03-0.57,10.25-1.61
	c0.22-0.07,0.46-0.02,0.62,0.15L55.2,68.92c0.39,0.39,1.05,0.12,1.05-0.43V46.66c0-0.34-0.27-0.61-0.61-0.61L32.33,46.06
	L32.33,46.06z"/>
</svg>
