<?xml version="1.0" encoding="utf-8"?>
<!-- Generator: Adobe Illustrator 24.1.1, SVG Export Plug-In . SVG Version: 6.00 Build 0)  -->
<svg version="1.1" id="Layer_1" xmlns="http://www.w3.org/2000/svg" xmlns:xlink="http://www.w3.org/1999/xlink" x="0px" y="0px"
	 viewBox="0 0 240 70" style="enable-background:new 0 0 240 70;" xml:space="preserve">
<style type="text/css">
	.st0{fill:#3C0B75;}
	.st1{fill:#FCB614;}
</style>
<g>
	<path class="st0" d="M101.17,25.96c-0.59-0.94-1.32-1.77-2.21-2.49c-0.88-0.71-1.88-1.27-2.99-1.67c-1.11-0.4-2.28-0.6-3.5-0.6
		c-2.23,0-4.12,0.43-5.67,1.29c-1.55,0.86-2.81,2.02-3.78,3.46c-0.97,1.45-1.67,3.1-2.11,4.95c-0.44,1.85-0.66,3.76-0.66,5.73
		c0,1.89,0.22,3.73,0.66,5.51c0.44,1.79,1.14,3.39,2.11,4.82c0.97,1.43,2.23,2.57,3.78,3.43c1.55,0.86,3.44,1.29,5.67,1.29
		c3.02,0,5.39-0.92,7.09-2.77c1.7-1.85,2.74-4.28,3.12-7.31h9.58c-0.25,2.81-0.9,5.36-1.95,7.62c-1.05,2.27-2.44,4.2-4.16,5.8
		c-1.72,1.6-3.74,2.81-6.05,3.65c-2.31,0.84-4.85,1.26-7.62,1.26c-3.44,0-6.54-0.6-9.29-1.79c-2.75-1.2-5.07-2.85-6.96-4.95
		c-1.89-2.1-3.34-4.57-4.35-7.4c-1.01-2.83-1.51-5.89-1.51-9.17c0-3.36,0.5-6.48,1.51-9.36c1.01-2.88,2.46-5.39,4.35-7.53
		s4.21-3.82,6.96-5.04c2.75-1.22,5.85-1.83,9.29-1.83c2.48,0,4.82,0.36,7.02,1.07c2.2,0.71,4.18,1.75,5.92,3.12
		c1.74,1.37,3.18,3.06,4.32,5.07c1.13,2.02,1.85,4.33,2.14,6.93h-9.58C102.13,27.95,101.75,26.91,101.17,25.96z"/>
	<path class="st0" d="M141.42,13.96l16.82,44.98h-10.27l-3.4-10.02h-16.82l-3.53,10.02h-9.95l17.01-44.98H141.42z M141.99,41.56
		l-5.67-16.51h-0.13l-5.86,16.51H141.99z"/>
	<path class="st0" d="M172.04,13.96v36.67h21.92v8.32h-31.82V13.96H172.04z"/>
	<path class="st0" d="M209.4,13.96v36.67h21.92v8.32h-31.82V13.96H209.4z"/>
</g>
<path class="st1" d="M31.33,46.06c-8.23-0.26-14.61-6.51-14.61-16s6.65-16.01,15.14-16.01S47,20.37,47,30.06
	c0,3.97-1.12,7.37-3.02,10.02c-0.29,0.41-0.02,0.98,0.49,0.98h15.79c0.25,0,0.47-0.15,0.57-0.37C62.23,37.39,63,33.81,63,30.06
	C63,14.12,49.06,1.2,31.86,1.2S0.72,14.12,0.72,30.06s13.94,28.85,31.14,28.85c3.59,0,7.03-0.57,10.25-1.61
	c0.22-0.07,0.46-0.02,0.62,0.15L54.2,68.92c0.39,0.39,1.05,0.12,1.05-0.43V46.66c0-0.34-0.27-0.61-0.61-0.61L31.33,46.06
	L31.33,46.06z"/>
</svg>
